<?xml version="1.0" encoding="UTF-8"?>
<svg xmlns="http://www.w3.org/2000/svg" xmlns:xlink="http://www.w3.org/1999/xlink" width="25pt" height="25pt" viewBox="0 0 35 35" version="1.1" >
<g id="surface1">
<path  style=" stroke:none;fill-rule:nonzero;fill:#fff;fill-opacity:0.7;" d="M 17.25 16.859375 C 19.566406 16.859375 21.570312 16.027344 23.210938 14.390625 C 24.851562 12.75 25.679688 10.746094 25.679688 8.429688 C 25.679688 6.113281 24.851562 4.109375 23.210938 2.46875 C 21.570312 0.832031 19.566406 0 17.25 0 C 14.933594 0 12.929688 0.832031 11.289062 2.46875 C 9.652344 4.109375 8.820312 6.113281 8.820312 8.429688 C 8.820312 10.746094 9.652344 12.75 11.289062 14.390625 C 12.929688 16.027344 14.933594 16.859375 17.25 16.859375 Z M 12.742188 3.917969 C 14 2.664062 15.472656 2.050781 17.25 2.050781 C 19.027344 2.050781 20.503906 2.664062 21.761719 3.917969 C 23.019531 5.175781 23.628906 6.652344 23.628906 8.429688 C 23.628906 10.207031 23.019531 11.683594 21.761719 12.941406 C 20.503906 14.199219 19.027344 14.808594 17.25 14.808594 C 15.472656 14.808594 14 14.195312 12.742188 12.941406 C 11.484375 11.683594 10.871094 10.207031 10.871094 8.429688 C 10.871094 6.652344 11.484375 5.175781 12.742188 3.917969 Z M 12.742188 3.917969 "/>
<path style=" stroke:none;fill-rule:nonzero;fill:#fff;fill-opacity:0.7;" d="M 32 26.914062 C 31.953125 26.230469 31.859375 25.488281 31.71875 24.703125 C 31.574219 23.910156 31.390625 23.160156 31.171875 22.476562 C 30.945312 21.769531 30.640625 21.074219 30.257812 20.40625 C 29.863281 19.710938 29.402344 19.105469 28.882812 18.609375 C 28.335938 18.085938 27.671875 17.667969 26.902344 17.363281 C 26.132812 17.058594 25.28125 16.90625 24.375 16.90625 C 24.015625 16.90625 23.671875 17.054688 23.003906 17.488281 C 22.59375 17.753906 22.113281 18.066406 21.574219 18.40625 C 21.117188 18.699219 20.496094 18.972656 19.730469 19.222656 C 18.980469 19.464844 18.222656 19.585938 17.46875 19.585938 C 16.71875 19.585938 15.960938 19.464844 15.210938 19.222656 C 14.445312 18.972656 13.824219 18.699219 13.367188 18.40625 C 12.835938 18.070312 12.355469 17.757812 11.9375 17.488281 C 11.269531 17.054688 10.925781 16.90625 10.566406 16.90625 C 9.65625 16.90625 8.808594 17.058594 8.039062 17.363281 C 7.269531 17.667969 6.605469 18.085938 6.058594 18.609375 C 5.539062 19.105469 5.078125 19.710938 4.683594 20.40625 C 4.300781 21.074219 3.996094 21.769531 3.769531 22.476562 C 3.550781 23.164062 3.367188 23.910156 3.226562 24.703125 C 3.082031 25.484375 2.988281 26.230469 2.941406 26.914062 C 2.894531 27.582031 2.871094 28.277344 2.871094 28.980469 C 2.871094 30.808594 3.453125 32.285156 4.597656 33.378906 C 5.726562 34.453125 7.226562 35 9.046875 35 L 25.898438 35 C 27.71875 35 29.214844 34.453125 30.34375 33.378906 C 31.492188 32.289062 32.070312 30.808594 32.070312 28.980469 C 32.070312 28.273438 32.046875 27.578125 32 26.914062 Z M 28.929688 31.890625 C 28.183594 32.601562 27.191406 32.949219 25.898438 32.949219 L 9.046875 32.949219 C 7.75 32.949219 6.757812 32.601562 6.011719 31.890625 C 5.277344 31.195312 4.921875 30.242188 4.921875 28.980469 C 4.921875 28.324219 4.945312 27.675781 4.988281 27.054688 C 5.027344 26.445312 5.117188 25.777344 5.242188 25.0625 C 5.371094 24.359375 5.53125 23.699219 5.722656 23.105469 C 5.90625 22.53125 6.15625 21.964844 6.464844 21.417969 C 6.761719 20.898438 7.101562 20.449219 7.476562 20.089844 C 7.832031 19.753906 8.273438 19.476562 8.796875 19.269531 C 9.277344 19.078125 9.820312 18.976562 10.410156 18.960938 C 10.484375 18.996094 10.609375 19.070312 10.816406 19.207031 C 11.238281 19.480469 11.726562 19.792969 12.261719 20.136719 C 12.867188 20.523438 13.648438 20.871094 14.582031 21.171875 C 15.535156 21.480469 16.503906 21.636719 17.46875 21.636719 C 18.433594 21.636719 19.40625 21.480469 20.359375 21.171875 C 21.292969 20.871094 22.074219 20.523438 22.679688 20.136719 C 23.230469 19.785156 23.703125 19.480469 24.125 19.207031 C 24.332031 19.070312 24.457031 18.996094 24.53125 18.960938 C 25.121094 18.976562 25.664062 19.078125 26.144531 19.269531 C 26.667969 19.476562 27.113281 19.753906 27.464844 20.089844 C 27.839844 20.449219 28.179688 20.898438 28.476562 21.417969 C 28.785156 21.964844 29.035156 22.53125 29.21875 23.105469 C 29.410156 23.703125 29.574219 24.359375 29.699219 25.0625 C 29.828125 25.777344 29.914062 26.449219 29.953125 27.054688 L 29.953125 27.058594 C 30 27.675781 30.019531 28.324219 30.019531 28.980469 C 30.019531 30.242188 29.664062 31.195312 28.929688 31.890625 Z M 28.929688 31.890625 "/>
</g>
</svg>
